<?xml version="1.0" encoding="UTF-8"?>
<!DOCTYPE svg PUBLIC "-//W3C//DTD SVG 1.1//EN" "http://www.w3.org/Graphics/SVG/1.1/DTD/svg11.dtd">
<svg xmlns="http://www.w3.org/2000/svg" version="1.1" width="125px" height="125px" style="shape-rendering:geometricPrecision; text-rendering:geometricPrecision; image-rendering:optimizeQuality; fill-rule:evenodd; clip-rule:evenodd" xmlns:xlink="http://www.w3.org/1999/xlink">
<g><path style="opacity:1" fill="#000000" d="M -0.5,-0.5 C 11.1667,-0.5 22.8333,-0.5 34.5,-0.5C 34.5,11.1667 34.5,22.8333 34.5,34.5C 22.8333,34.5 11.1667,34.5 -0.5,34.5C -0.5,22.8333 -0.5,11.1667 -0.5,-0.5 Z"/></g>
<g><path style="opacity:1" fill="#fefffe" d="M 34.5,-0.5 C 36.1667,-0.5 37.8333,-0.5 39.5,-0.5C 39.5,1.16667 39.5,2.83333 39.5,4.5C 41.1667,4.5 42.8333,4.5 44.5,4.5C 44.5,6.16667 44.5,7.83333 44.5,9.5C 42.8333,9.5 41.1667,9.5 39.5,9.5C 39.5,14.5 39.5,19.5 39.5,24.5C 41.1667,24.5 42.8333,24.5 44.5,24.5C 44.5,22.8333 44.5,21.1667 44.5,19.5C 47.8333,19.5 51.1667,19.5 54.5,19.5C 54.5,21.1667 54.5,22.8333 54.5,24.5C 52.8333,24.5 51.1667,24.5 49.5,24.5C 49.5,32.8333 49.5,41.1667 49.5,49.5C 47.8333,49.5 46.1667,49.5 44.5,49.5C 44.5,51.1667 44.5,52.8333 44.5,54.5C 42.8333,54.5 41.1667,54.5 39.5,54.5C 39.5,51.1667 39.5,47.8333 39.5,44.5C 37.8333,44.5 36.1667,44.5 34.5,44.5C 34.5,46.1667 34.5,47.8333 34.5,49.5C 29.5,49.5 24.5,49.5 19.5,49.5C 19.5,46.1667 19.5,42.8333 19.5,39.5C 12.8333,39.5 6.16667,39.5 -0.5,39.5C -0.5,37.8333 -0.5,36.1667 -0.5,34.5C 11.1667,34.5 22.8333,34.5 34.5,34.5C 34.5,22.8333 34.5,11.1667 34.5,-0.5 Z"/></g>
<g><path style="opacity:1" fill="#000000" d="M 39.5,-0.5 C 41.1667,-0.5 42.8333,-0.5 44.5,-0.5C 44.5,1.16667 44.5,2.83333 44.5,4.5C 42.8333,4.5 41.1667,4.5 39.5,4.5C 39.5,2.83333 39.5,1.16667 39.5,-0.5 Z"/></g>
<g><path style="opacity:1" fill="#fefffe" d="M 44.5,-0.5 C 46.1667,-0.5 47.8333,-0.5 49.5,-0.5C 49.5,1.16667 49.5,2.83333 49.5,4.5C 47.8333,4.5 46.1667,4.5 44.5,4.5C 44.5,2.83333 44.5,1.16667 44.5,-0.5 Z"/></g>
<g><path style="opacity:1" fill="#000000" d="M 49.5,-0.5 C 51.1667,-0.5 52.8333,-0.5 54.5,-0.5C 54.5,1.16667 54.5,2.83333 54.5,4.5C 56.1667,4.5 57.8333,4.5 59.5,4.5C 59.5,2.83333 59.5,1.16667 59.5,-0.5C 62.8333,-0.5 66.1667,-0.5 69.5,-0.5C 69.5,2.83333 69.5,6.16667 69.5,9.5C 71.1667,9.5 72.8333,9.5 74.5,9.5C 74.5,11.1667 74.5,12.8333 74.5,14.5C 77.8333,14.5 81.1667,14.5 84.5,14.5C 84.5,22.8333 84.5,31.1667 84.5,39.5C 86.1667,39.5 87.8333,39.5 89.5,39.5C 89.5,41.1667 89.5,42.8333 89.5,44.5C 82.8333,44.5 76.1667,44.5 69.5,44.5C 69.5,42.8333 69.5,41.1667 69.5,39.5C 71.1667,39.5 72.8333,39.5 74.5,39.5C 74.5,37.8333 74.5,36.1667 74.5,34.5C 72.8333,34.5 71.1667,34.5 69.5,34.5C 69.5,31.1667 69.5,27.8333 69.5,24.5C 66.1667,24.5 62.8333,24.5 59.5,24.5C 59.5,26.1667 59.5,27.8333 59.5,29.5C 61.1667,29.5 62.8333,29.5 64.5,29.5C 64.5,37.8333 64.5,46.1667 64.5,54.5C 61.1667,54.5 57.8333,54.5 54.5,54.5C 54.5,57.8333 54.5,61.1667 54.5,64.5C 51.1667,64.5 47.8333,64.5 44.5,64.5C 44.5,62.8333 44.5,61.1667 44.5,59.5C 42.8333,59.5 41.1667,59.5 39.5,59.5C 39.5,57.8333 39.5,56.1667 39.5,54.5C 41.1667,54.5 42.8333,54.5 44.5,54.5C 44.5,52.8333 44.5,51.1667 44.5,49.5C 46.1667,49.5 47.8333,49.5 49.5,49.5C 49.5,41.1667 49.5,32.8333 49.5,24.5C 51.1667,24.5 52.8333,24.5 54.5,24.5C 54.5,22.8333 54.5,21.1667 54.5,19.5C 51.1667,19.5 47.8333,19.5 44.5,19.5C 44.5,21.1667 44.5,22.8333 44.5,24.5C 42.8333,24.5 41.1667,24.5 39.5,24.5C 39.5,19.5 39.5,14.5 39.5,9.5C 41.1667,9.5 42.8333,9.5 44.5,9.5C 44.5,7.83333 44.5,6.16667 44.5,4.5C 46.1667,4.5 47.8333,4.5 49.5,4.5C 49.5,2.83333 49.5,1.16667 49.5,-0.5 Z"/></g>
<g><path style="opacity:1" fill="#fefffe" d="M 54.5,-0.5 C 56.1667,-0.5 57.8333,-0.5 59.5,-0.5C 59.5,1.16667 59.5,2.83333 59.5,4.5C 57.8333,4.5 56.1667,4.5 54.5,4.5C 54.5,2.83333 54.5,1.16667 54.5,-0.5 Z"/></g>
<g><path style="opacity:1" fill="#fefffe" d="M 69.5,-0.5 C 72.8333,-0.5 76.1667,-0.5 79.5,-0.5C 79.5,1.16667 79.5,2.83333 79.5,4.5C 81.1667,4.5 82.8333,4.5 84.5,4.5C 84.5,2.83333 84.5,1.16667 84.5,-0.5C 86.1667,-0.5 87.8333,-0.5 89.5,-0.5C 89.5,11.1667 89.5,22.8333 89.5,34.5C 101.167,34.5 112.833,34.5 124.5,34.5C 124.5,36.1667 124.5,37.8333 124.5,39.5C 122.833,39.5 121.167,39.5 119.5,39.5C 119.5,41.1667 119.5,42.8333 119.5,44.5C 117.833,44.5 116.167,44.5 114.5,44.5C 114.5,42.8333 114.5,41.1667 114.5,39.5C 109.5,39.5 104.5,39.5 99.5,39.5C 99.5,41.1667 99.5,42.8333 99.5,44.5C 97.8333,44.5 96.1667,44.5 94.5,44.5C 94.5,46.1667 94.5,47.8333 94.5,49.5C 92.8333,49.5 91.1667,49.5 89.5,49.5C 89.5,52.8333 89.5,56.1667 89.5,59.5C 87.8333,59.5 86.1667,59.5 84.5,59.5C 84.5,56.1667 84.5,52.8333 84.5,49.5C 82.8333,49.5 81.1667,49.5 79.5,49.5C 79.5,51.1667 79.5,52.8333 79.5,54.5C 74.5,54.5 69.5,54.5 64.5,54.5C 64.5,46.1667 64.5,37.8333 64.5,29.5C 62.8333,29.5 61.1667,29.5 59.5,29.5C 59.5,27.8333 59.5,26.1667 59.5,24.5C 62.8333,24.5 66.1667,24.5 69.5,24.5C 69.5,27.8333 69.5,31.1667 69.5,34.5C 71.1667,34.5 72.8333,34.5 74.5,34.5C 74.5,36.1667 74.5,37.8333 74.5,39.5C 72.8333,39.5 71.1667,39.5 69.5,39.5C 69.5,41.1667 69.5,42.8333 69.5,44.5C 76.1667,44.5 82.8333,44.5 89.5,44.5C 89.5,42.8333 89.5,41.1667 89.5,39.5C 87.8333,39.5 86.1667,39.5 84.5,39.5C 84.5,31.1667 84.5,22.8333 84.5,14.5C 81.1667,14.5 77.8333,14.5 74.5,14.5C 74.5,12.8333 74.5,11.1667 74.5,9.5C 72.8333,9.5 71.1667,9.5 69.5,9.5C 69.5,6.16667 69.5,2.83333 69.5,-0.5 Z"/></g>
<g><path style="opacity:1" fill="#000000" d="M 79.5,-0.5 C 81.1667,-0.5 82.8333,-0.5 84.5,-0.5C 84.5,1.16667 84.5,2.83333 84.5,4.5C 82.8333,4.5 81.1667,4.5 79.5,4.5C 79.5,2.83333 79.5,1.16667 79.5,-0.5 Z"/></g>
<g><path style="opacity:1" fill="#000000" d="M 89.5,-0.5 C 101.167,-0.5 112.833,-0.5 124.5,-0.5C 124.5,11.1667 124.5,22.8333 124.5,34.5C 112.833,34.5 101.167,34.5 89.5,34.5C 89.5,22.8333 89.5,11.1667 89.5,-0.5 Z"/></g>
<g><path style="opacity:1" fill="#fefffe" d="M 4.5,4.5 C 12.8333,4.5 21.1667,4.5 29.5,4.5C 29.5,12.8333 29.5,21.1667 29.5,29.5C 21.1667,29.5 12.8333,29.5 4.5,29.5C 4.5,21.1667 4.5,12.8333 4.5,4.5 Z"/></g>
<g><path style="opacity:1" fill="#fefffe" d="M 94.5,4.5 C 102.833,4.5 111.167,4.5 119.5,4.5C 119.5,12.8333 119.5,21.1667 119.5,29.5C 111.167,29.5 102.833,29.5 94.5,29.5C 94.5,21.1667 94.5,12.8333 94.5,4.5 Z"/></g>
<g><path style="opacity:1" fill="#000000" d="M 9.5,9.5 C 14.5,9.5 19.5,9.5 24.5,9.5C 24.5,14.5 24.5,19.5 24.5,24.5C 19.5,24.5 14.5,24.5 9.5,24.5C 9.5,19.5 9.5,14.5 9.5,9.5 Z"/></g>
<g><path style="opacity:1" fill="#fefffe" d="M 54.5,19.5 C 54.5,16.1667 54.5,12.8333 54.5,9.5C 57.8333,9.5 61.1667,9.5 64.5,9.5C 64.5,11.1667 64.5,12.8333 64.5,14.5C 62.8333,14.5 61.1667,14.5 59.5,14.5C 59.5,16.1667 59.5,17.8333 59.5,19.5C 57.8333,19.5 56.1667,19.5 54.5,19.5 Z"/></g>
<g><path style="opacity:1" fill="#000000" d="M 99.5,9.5 C 104.5,9.5 109.5,9.5 114.5,9.5C 114.5,14.5 114.5,19.5 114.5,24.5C 109.5,24.5 104.5,24.5 99.5,24.5C 99.5,19.5 99.5,14.5 99.5,9.5 Z"/></g>
<g><path style="opacity:1" fill="#fefffe" d="M 74.5,14.5 C 74.5,16.1667 74.5,17.8333 74.5,19.5C 72.8333,19.5 71.1667,19.5 69.5,19.5C 69.5,17.8333 69.5,16.1667 69.5,14.5C 71.1667,14.5 72.8333,14.5 74.5,14.5 Z"/></g>
<g><path style="opacity:1" fill="#fefffe" d="M 74.5,34.5 C 74.5,31.1667 74.5,27.8333 74.5,24.5C 76.1667,24.5 77.8333,24.5 79.5,24.5C 79.5,27.8333 79.5,31.1667 79.5,34.5C 77.8333,34.5 76.1667,34.5 74.5,34.5 Z"/></g>
<g><path style="opacity:1" fill="#000000" d="M 39.5,29.5 C 41.1667,29.5 42.8333,29.5 44.5,29.5C 44.5,31.1667 44.5,32.8333 44.5,34.5C 42.8333,34.5 41.1667,34.5 39.5,34.5C 39.5,32.8333 39.5,31.1667 39.5,29.5 Z"/></g>
<g><path style="opacity:1" fill="#fefffe" d="M 59.5,29.5 C 59.5,32.8333 59.5,36.1667 59.5,39.5C 57.8333,39.5 56.1667,39.5 54.5,39.5C 54.5,36.1667 54.5,32.8333 54.5,29.5C 56.1667,29.5 57.8333,29.5 59.5,29.5 Z"/></g>
<g><path style="opacity:1" fill="#000000" d="M -0.5,39.5 C 6.16667,39.5 12.8333,39.5 19.5,39.5C 19.5,42.8333 19.5,46.1667 19.5,49.5C 16.1667,49.5 12.8333,49.5 9.5,49.5C 9.5,51.1667 9.5,52.8333 9.5,54.5C 6.16667,54.5 2.83333,54.5 -0.5,54.5C -0.5,52.8333 -0.5,51.1667 -0.5,49.5C 1.16667,49.5 2.83333,49.5 4.5,49.5C 4.5,47.8333 4.5,46.1667 4.5,44.5C 2.83333,44.5 1.16667,44.5 -0.5,44.5C -0.5,42.8333 -0.5,41.1667 -0.5,39.5 Z"/></g>
<g><path style="opacity:1" fill="#000000" d="M 34.5,44.5 C 32.8333,44.5 31.1667,44.5 29.5,44.5C 29.5,42.8333 29.5,41.1667 29.5,39.5C 31.1667,39.5 32.8333,39.5 34.5,39.5C 34.5,41.1667 34.5,42.8333 34.5,44.5 Z"/></g>
<g><path style="opacity:1" fill="#000000" d="M 39.5,44.5 C 39.5,42.8333 39.5,41.1667 39.5,39.5C 41.1667,39.5 42.8333,39.5 44.5,39.5C 44.5,41.1667 44.5,42.8333 44.5,44.5C 42.8333,44.5 41.1667,44.5 39.5,44.5 Z"/></g>
<g><path style="opacity:1" fill="#000000" d="M 114.5,44.5 C 109.5,44.5 104.5,44.5 99.5,44.5C 99.5,42.8333 99.5,41.1667 99.5,39.5C 104.5,39.5 109.5,39.5 114.5,39.5C 114.5,41.1667 114.5,42.8333 114.5,44.5 Z"/></g>
<g><path style="opacity:1" fill="#000000" d="M 124.5,39.5 C 124.5,41.1667 124.5,42.8333 124.5,44.5C 122.833,44.5 121.167,44.5 119.5,44.5C 119.5,42.8333 119.5,41.1667 119.5,39.5C 121.167,39.5 122.833,39.5 124.5,39.5 Z"/></g>
<g><path style="opacity:1" fill="#fefffe" d="M -0.5,44.5 C 1.16667,44.5 2.83333,44.5 4.5,44.5C 4.5,46.1667 4.5,47.8333 4.5,49.5C 2.83333,49.5 1.16667,49.5 -0.5,49.5C -0.5,47.8333 -0.5,46.1667 -0.5,44.5 Z"/></g>
<g><path style="opacity:1" fill="#000000" d="M 34.5,44.5 C 36.1667,44.5 37.8333,44.5 39.5,44.5C 39.5,47.8333 39.5,51.1667 39.5,54.5C 36.1667,54.5 32.8333,54.5 29.5,54.5C 29.5,56.1667 29.5,57.8333 29.5,59.5C 31.1667,59.5 32.8333,59.5 34.5,59.5C 34.5,61.1667 34.5,62.8333 34.5,64.5C 32.8333,64.5 31.1667,64.5 29.5,64.5C 29.5,66.1667 29.5,67.8333 29.5,69.5C 31.1667,69.5 32.8333,69.5 34.5,69.5C 34.5,71.1667 34.5,72.8333 34.5,74.5C 31.1667,74.5 27.8333,74.5 24.5,74.5C 24.5,71.1667 24.5,67.8333 24.5,64.5C 22.8333,64.5 21.1667,64.5 19.5,64.5C 19.5,62.8333 19.5,61.1667 19.5,59.5C 17.8333,59.5 16.1667,59.5 14.5,59.5C 14.5,57.8333 14.5,56.1667 14.5,54.5C 16.1667,54.5 17.8333,54.5 19.5,54.5C 19.5,52.8333 19.5,51.1667 19.5,49.5C 24.5,49.5 29.5,49.5 34.5,49.5C 34.5,47.8333 34.5,46.1667 34.5,44.5 Z"/></g>
<g><path style="opacity:1" fill="#fefffe" d="M 54.5,44.5 C 56.1667,44.5 57.8333,44.5 59.5,44.5C 59.5,46.1667 59.5,47.8333 59.5,49.5C 57.8333,49.5 56.1667,49.5 54.5,49.5C 54.5,47.8333 54.5,46.1667 54.5,44.5 Z"/></g>
<g><path style="opacity:1" fill="#000000" d="M 99.5,44.5 C 99.5,47.8333 99.5,51.1667 99.5,54.5C 104.5,54.5 109.5,54.5 114.5,54.5C 114.5,56.1667 114.5,57.8333 114.5,59.5C 117.833,59.5 121.167,59.5 124.5,59.5C 124.5,62.8333 124.5,66.1667 124.5,69.5C 122.833,69.5 121.167,69.5 119.5,69.5C 119.5,67.8333 119.5,66.1667 119.5,64.5C 116.167,64.5 112.833,64.5 109.5,64.5C 109.5,62.8333 109.5,61.1667 109.5,59.5C 107.833,59.5 106.167,59.5 104.5,59.5C 104.5,66.1667 104.5,72.8333 104.5,79.5C 109.5,79.5 114.5,79.5 119.5,79.5C 119.5,77.8333 119.5,76.1667 119.5,74.5C 121.167,74.5 122.833,74.5 124.5,74.5C 124.5,81.1667 124.5,87.8333 124.5,94.5C 119.5,94.5 114.5,94.5 109.5,94.5C 109.5,91.1667 109.5,87.8333 109.5,84.5C 107.833,84.5 106.167,84.5 104.5,84.5C 104.5,89.5 104.5,94.5 104.5,99.5C 106.167,99.5 107.833,99.5 109.5,99.5C 109.5,101.167 109.5,102.833 109.5,104.5C 112.833,104.5 116.167,104.5 119.5,104.5C 119.5,102.833 119.5,101.167 119.5,99.5C 121.167,99.5 122.833,99.5 124.5,99.5C 124.5,102.833 124.5,106.167 124.5,109.5C 122.833,109.5 121.167,109.5 119.5,109.5C 119.5,111.167 119.5,112.833 119.5,114.5C 117.833,114.5 116.167,114.5 114.5,114.5C 114.5,116.167 114.5,117.833 114.5,119.5C 117.833,119.5 121.167,119.5 124.5,119.5C 124.5,121.167 124.5,122.833 124.5,124.5C 112.833,124.5 101.167,124.5 89.5,124.5C 89.5,122.833 89.5,121.167 89.5,119.5C 87.8333,119.5 86.1667,119.5 84.5,119.5C 84.5,117.833 84.5,116.167 84.5,114.5C 82.8333,114.5 81.1667,114.5 79.5,114.5C 79.5,112.833 79.5,111.167 79.5,109.5C 81.1667,109.5 82.8333,109.5 84.5,109.5C 84.5,107.833 84.5,106.167 84.5,104.5C 82.8333,104.5 81.1667,104.5 79.5,104.5C 79.5,102.833 79.5,101.167 79.5,99.5C 77.8333,99.5 76.1667,99.5 74.5,99.5C 74.5,101.167 74.5,102.833 74.5,104.5C 72.8333,104.5 71.1667,104.5 69.5,104.5C 69.5,101.167 69.5,97.8333 69.5,94.5C 72.8333,94.5 76.1667,94.5 79.5,94.5C 79.5,91.1667 79.5,87.8333 79.5,84.5C 77.8333,84.5 76.1667,84.5 74.5,84.5C 74.5,82.8333 74.5,81.1667 74.5,79.5C 76.1667,79.5 77.8333,79.5 79.5,79.5C 79.5,76.1667 79.5,72.8333 79.5,69.5C 77.8333,69.5 76.1667,69.5 74.5,69.5C 74.5,67.8333 74.5,66.1667 74.5,64.5C 77.8333,64.5 81.1667,64.5 84.5,64.5C 84.5,62.8333 84.5,61.1667 84.5,59.5C 86.1667,59.5 87.8333,59.5 89.5,59.5C 89.5,56.1667 89.5,52.8333 89.5,49.5C 91.1667,49.5 92.8333,49.5 94.5,49.5C 94.5,47.8333 94.5,46.1667 94.5,44.5C 96.1667,44.5 97.8333,44.5 99.5,44.5 Z"/></g>
<g><path style="opacity:1" fill="#fefffe" d="M 99.5,44.5 C 104.5,44.5 109.5,44.5 114.5,44.5C 114.5,46.1667 114.5,47.8333 114.5,49.5C 116.167,49.5 117.833,49.5 119.5,49.5C 119.5,47.8333 119.5,46.1667 119.5,44.5C 121.167,44.5 122.833,44.5 124.5,44.5C 124.5,49.5 124.5,54.5 124.5,59.5C 121.167,59.5 117.833,59.5 114.5,59.5C 114.5,57.8333 114.5,56.1667 114.5,54.5C 109.5,54.5 104.5,54.5 99.5,54.5C 99.5,51.1667 99.5,47.8333 99.5,44.5 Z"/></g>
<g><path style="opacity:1" fill="#000000" d="M 114.5,44.5 C 116.167,44.5 117.833,44.5 119.5,44.5C 119.5,46.1667 119.5,47.8333 119.5,49.5C 117.833,49.5 116.167,49.5 114.5,49.5C 114.5,47.8333 114.5,46.1667 114.5,44.5 Z"/></g>
<g><path style="opacity:1" fill="#fefffe" d="M 19.5,49.5 C 19.5,51.1667 19.5,52.8333 19.5,54.5C 17.8333,54.5 16.1667,54.5 14.5,54.5C 14.5,56.1667 14.5,57.8333 14.5,59.5C 16.1667,59.5 17.8333,59.5 19.5,59.5C 19.5,61.1667 19.5,62.8333 19.5,64.5C 17.8333,64.5 16.1667,64.5 14.5,64.5C 14.5,66.1667 14.5,67.8333 14.5,69.5C 11.1667,69.5 7.83333,69.5 4.5,69.5C 4.5,71.1667 4.5,72.8333 4.5,74.5C 2.83333,74.5 1.16667,74.5 -0.5,74.5C -0.5,67.8333 -0.5,61.1667 -0.5,54.5C 2.83333,54.5 6.16667,54.5 9.5,54.5C 9.5,52.8333 9.5,51.1667 9.5,49.5C 12.8333,49.5 16.1667,49.5 19.5,49.5 Z"/></g>
<g><path style="opacity:1" fill="#000000" d="M 84.5,59.5 C 81.1667,59.5 77.8333,59.5 74.5,59.5C 74.5,61.1667 74.5,62.8333 74.5,64.5C 71.1667,64.5 67.8333,64.5 64.5,64.5C 64.5,66.1667 64.5,67.8333 64.5,69.5C 62.8333,69.5 61.1667,69.5 59.5,69.5C 59.5,72.8333 59.5,76.1667 59.5,79.5C 57.8333,79.5 56.1667,79.5 54.5,79.5C 54.5,84.5 54.5,89.5 54.5,94.5C 56.1667,94.5 57.8333,94.5 59.5,94.5C 59.5,96.1667 59.5,97.8333 59.5,99.5C 56.1667,99.5 52.8333,99.5 49.5,99.5C 49.5,96.1667 49.5,92.8333 49.5,89.5C 46.1667,89.5 42.8333,89.5 39.5,89.5C 39.5,86.1667 39.5,82.8333 39.5,79.5C 41.1667,79.5 42.8333,79.5 44.5,79.5C 44.5,77.8333 44.5,76.1667 44.5,74.5C 46.1667,74.5 47.8333,74.5 49.5,74.5C 49.5,72.8333 49.5,71.1667 49.5,69.5C 51.1667,69.5 52.8333,69.5 54.5,69.5C 54.5,67.8333 54.5,66.1667 54.5,64.5C 56.1667,64.5 57.8333,64.5 59.5,64.5C 59.5,62.8333 59.5,61.1667 59.5,59.5C 61.1667,59.5 62.8333,59.5 64.5,59.5C 64.5,57.8333 64.5,56.1667 64.5,54.5C 69.5,54.5 74.5,54.5 79.5,54.5C 79.5,52.8333 79.5,51.1667 79.5,49.5C 81.1667,49.5 82.8333,49.5 84.5,49.5C 84.5,52.8333 84.5,56.1667 84.5,59.5 Z"/></g>
<g><path style="opacity:1" fill="#fefffe" d="M 39.5,54.5 C 39.5,56.1667 39.5,57.8333 39.5,59.5C 41.1667,59.5 42.8333,59.5 44.5,59.5C 44.5,61.1667 44.5,62.8333 44.5,64.5C 41.1667,64.5 37.8333,64.5 34.5,64.5C 34.5,62.8333 34.5,61.1667 34.5,59.5C 32.8333,59.5 31.1667,59.5 29.5,59.5C 29.5,57.8333 29.5,56.1667 29.5,54.5C 32.8333,54.5 36.1667,54.5 39.5,54.5 Z"/></g>
<g><path style="opacity:1" fill="#fefffe" d="M 64.5,54.5 C 64.5,56.1667 64.5,57.8333 64.5,59.5C 62.8333,59.5 61.1667,59.5 59.5,59.5C 59.5,61.1667 59.5,62.8333 59.5,64.5C 57.8333,64.5 56.1667,64.5 54.5,64.5C 54.5,61.1667 54.5,57.8333 54.5,54.5C 57.8333,54.5 61.1667,54.5 64.5,54.5 Z"/></g>
<g><path style="opacity:1" fill="#fefffe" d="M 99.5,54.5 C 99.5,57.8333 99.5,61.1667 99.5,64.5C 97.8333,64.5 96.1667,64.5 94.5,64.5C 94.5,61.1667 94.5,57.8333 94.5,54.5C 96.1667,54.5 97.8333,54.5 99.5,54.5 Z"/></g>
<g><path style="opacity:1" fill="#fefffe" d="M 84.5,59.5 C 84.5,61.1667 84.5,62.8333 84.5,64.5C 81.1667,64.5 77.8333,64.5 74.5,64.5C 74.5,62.8333 74.5,61.1667 74.5,59.5C 77.8333,59.5 81.1667,59.5 84.5,59.5 Z"/></g>
<g><path style="opacity:1" fill="#fefffe" d="M 119.5,69.5 C 116.167,69.5 112.833,69.5 109.5,69.5C 109.5,71.1667 109.5,72.8333 109.5,74.5C 112.833,74.5 116.167,74.5 119.5,74.5C 119.5,76.1667 119.5,77.8333 119.5,79.5C 114.5,79.5 109.5,79.5 104.5,79.5C 104.5,72.8333 104.5,66.1667 104.5,59.5C 106.167,59.5 107.833,59.5 109.5,59.5C 109.5,61.1667 109.5,62.8333 109.5,64.5C 112.833,64.5 116.167,64.5 119.5,64.5C 119.5,66.1667 119.5,67.8333 119.5,69.5 Z"/></g>
<g><path style="opacity:1" fill="#000000" d="M 19.5,64.5 C 19.5,67.8333 19.5,71.1667 19.5,74.5C 21.1667,74.5 22.8333,74.5 24.5,74.5C 24.5,76.1667 24.5,77.8333 24.5,79.5C 27.8333,79.5 31.1667,79.5 34.5,79.5C 34.5,81.1667 34.5,82.8333 34.5,84.5C 29.5,84.5 24.5,84.5 19.5,84.5C 19.5,82.8333 19.5,81.1667 19.5,79.5C 16.1667,79.5 12.8333,79.5 9.5,79.5C 9.5,77.8333 9.5,76.1667 9.5,74.5C 7.83333,74.5 6.16667,74.5 4.5,74.5C 4.5,72.8333 4.5,71.1667 4.5,69.5C 7.83333,69.5 11.1667,69.5 14.5,69.5C 14.5,67.8333 14.5,66.1667 14.5,64.5C 16.1667,64.5 17.8333,64.5 19.5,64.5 Z"/></g>
<g><path style="opacity:1" fill="#fefffe" d="M 19.5,64.5 C 21.1667,64.5 22.8333,64.5 24.5,64.5C 24.5,67.8333 24.5,71.1667 24.5,74.5C 22.8333,74.5 21.1667,74.5 19.5,74.5C 19.5,71.1667 19.5,67.8333 19.5,64.5 Z"/></g>
<g><path style="opacity:1" fill="#fefffe" d="M 34.5,64.5 C 34.5,66.1667 34.5,67.8333 34.5,69.5C 32.8333,69.5 31.1667,69.5 29.5,69.5C 29.5,67.8333 29.5,66.1667 29.5,64.5C 31.1667,64.5 32.8333,64.5 34.5,64.5 Z"/></g>
<g><path style="opacity:1" fill="#000000" d="M 34.5,64.5 C 37.8333,64.5 41.1667,64.5 44.5,64.5C 44.5,67.8333 44.5,71.1667 44.5,74.5C 42.8333,74.5 41.1667,74.5 39.5,74.5C 39.5,72.8333 39.5,71.1667 39.5,69.5C 37.8333,69.5 36.1667,69.5 34.5,69.5C 34.5,67.8333 34.5,66.1667 34.5,64.5 Z"/></g>
<g><path style="opacity:1" fill="#fefffe" d="M 44.5,64.5 C 47.8333,64.5 51.1667,64.5 54.5,64.5C 54.5,66.1667 54.5,67.8333 54.5,69.5C 52.8333,69.5 51.1667,69.5 49.5,69.5C 49.5,71.1667 49.5,72.8333 49.5,74.5C 47.8333,74.5 46.1667,74.5 44.5,74.5C 44.5,71.1667 44.5,67.8333 44.5,64.5 Z"/></g>
<g><path style="opacity:1" fill="#fefffe" d="M 74.5,64.5 C 74.5,66.1667 74.5,67.8333 74.5,69.5C 76.1667,69.5 77.8333,69.5 79.5,69.5C 79.5,72.8333 79.5,76.1667 79.5,79.5C 77.8333,79.5 76.1667,79.5 74.5,79.5C 74.5,77.8333 74.5,76.1667 74.5,74.5C 72.8333,74.5 71.1667,74.5 69.5,74.5C 69.5,72.8333 69.5,71.1667 69.5,69.5C 67.8333,69.5 66.1667,69.5 64.5,69.5C 64.5,67.8333 64.5,66.1667 64.5,64.5C 67.8333,64.5 71.1667,64.5 74.5,64.5 Z"/></g>
<g><path style="opacity:1" fill="#fefffe" d="M 34.5,69.5 C 36.1667,69.5 37.8333,69.5 39.5,69.5C 39.5,71.1667 39.5,72.8333 39.5,74.5C 41.1667,74.5 42.8333,74.5 44.5,74.5C 44.5,76.1667 44.5,77.8333 44.5,79.5C 42.8333,79.5 41.1667,79.5 39.5,79.5C 39.5,82.8333 39.5,86.1667 39.5,89.5C 42.8333,89.5 46.1667,89.5 49.5,89.5C 49.5,92.8333 49.5,96.1667 49.5,99.5C 52.8333,99.5 56.1667,99.5 59.5,99.5C 59.5,101.167 59.5,102.833 59.5,104.5C 52.8333,104.5 46.1667,104.5 39.5,104.5C 39.5,111.167 39.5,117.833 39.5,124.5C 37.8333,124.5 36.1667,124.5 34.5,124.5C 34.5,112.833 34.5,101.167 34.5,89.5C 22.8333,89.5 11.1667,89.5 -0.5,89.5C -0.5,86.1667 -0.5,82.8333 -0.5,79.5C 1.16667,79.5 2.83333,79.5 4.5,79.5C 4.5,77.8333 4.5,76.1667 4.5,74.5C 6.16667,74.5 7.83333,74.5 9.5,74.5C 9.5,76.1667 9.5,77.8333 9.5,79.5C 12.8333,79.5 16.1667,79.5 19.5,79.5C 19.5,81.1667 19.5,82.8333 19.5,84.5C 24.5,84.5 29.5,84.5 34.5,84.5C 34.5,82.8333 34.5,81.1667 34.5,79.5C 31.1667,79.5 27.8333,79.5 24.5,79.5C 24.5,77.8333 24.5,76.1667 24.5,74.5C 27.8333,74.5 31.1667,74.5 34.5,74.5C 34.5,72.8333 34.5,71.1667 34.5,69.5 Z"/></g>
<g><path style="opacity:1" fill="#fefffe" d="M 64.5,69.5 C 66.1667,69.5 67.8333,69.5 69.5,69.5C 69.5,71.1667 69.5,72.8333 69.5,74.5C 69.5,76.1667 69.5,77.8333 69.5,79.5C 67.8333,79.5 66.1667,79.5 64.5,79.5C 64.5,82.8333 64.5,86.1667 64.5,89.5C 62.8333,89.5 61.1667,89.5 59.5,89.5C 59.5,91.1667 59.5,92.8333 59.5,94.5C 57.8333,94.5 56.1667,94.5 54.5,94.5C 54.5,89.5 54.5,84.5 54.5,79.5C 56.1667,79.5 57.8333,79.5 59.5,79.5C 59.5,76.1667 59.5,72.8333 59.5,69.5C 61.1667,69.5 62.8333,69.5 64.5,69.5 Z"/></g>
<g><path style="opacity:1" fill="#000000" d="M 64.5,69.5 C 66.1667,69.5 67.8333,69.5 69.5,69.5C 69.5,71.1667 69.5,72.8333 69.5,74.5C 67.8333,74.5 66.1667,74.5 64.5,74.5C 64.5,72.8333 64.5,71.1667 64.5,69.5 Z"/></g>
<g><path style="opacity:1" fill="#fefffe" d="M 89.5,69.5 C 92.8333,69.5 96.1667,69.5 99.5,69.5C 99.5,71.1667 99.5,72.8333 99.5,74.5C 96.1667,74.5 92.8333,74.5 89.5,74.5C 89.5,72.8333 89.5,71.1667 89.5,69.5 Z"/></g>
<g><path style="opacity:1" fill="#000000" d="M 119.5,69.5 C 119.5,71.1667 119.5,72.8333 119.5,74.5C 116.167,74.5 112.833,74.5 109.5,74.5C 109.5,72.8333 109.5,71.1667 109.5,69.5C 112.833,69.5 116.167,69.5 119.5,69.5 Z"/></g>
<g><path style="opacity:1" fill="#fefffe" d="M 119.5,69.5 C 121.167,69.5 122.833,69.5 124.5,69.5C 124.5,71.1667 124.5,72.8333 124.5,74.5C 122.833,74.5 121.167,74.5 119.5,74.5C 119.5,72.8333 119.5,71.1667 119.5,69.5 Z"/></g>
<g><path style="opacity:1" fill="#000000" d="M -0.5,74.5 C 1.16667,74.5 2.83333,74.5 4.5,74.5C 4.5,76.1667 4.5,77.8333 4.5,79.5C 2.83333,79.5 1.16667,79.5 -0.5,79.5C -0.5,77.8333 -0.5,76.1667 -0.5,74.5 Z"/></g>
<g><path style="opacity:1" fill="#000000" d="M 69.5,74.5 C 71.1667,74.5 72.8333,74.5 74.5,74.5C 74.5,76.1667 74.5,77.8333 74.5,79.5C 72.8333,79.5 71.1667,79.5 69.5,79.5C 69.5,77.8333 69.5,76.1667 69.5,74.5 Z"/></g>
<g><path style="opacity:1" fill="#fefffe" d="M 44.5,79.5 C 46.1667,79.5 47.8333,79.5 49.5,79.5C 49.5,81.1667 49.5,82.8333 49.5,84.5C 47.8333,84.5 46.1667,84.5 44.5,84.5C 44.5,82.8333 44.5,81.1667 44.5,79.5 Z"/></g>
<g><path style="opacity:1" fill="#000000" d="M 69.5,79.5 C 69.5,84.5 69.5,89.5 69.5,94.5C 66.1667,94.5 62.8333,94.5 59.5,94.5C 59.5,92.8333 59.5,91.1667 59.5,89.5C 61.1667,89.5 62.8333,89.5 64.5,89.5C 64.5,86.1667 64.5,82.8333 64.5,79.5C 66.1667,79.5 67.8333,79.5 69.5,79.5 Z"/></g>
<g><path style="opacity:1" fill="#fefffe" d="M 69.5,79.5 C 71.1667,79.5 72.8333,79.5 74.5,79.5C 74.5,81.1667 74.5,82.8333 74.5,84.5C 76.1667,84.5 77.8333,84.5 79.5,84.5C 79.5,87.8333 79.5,91.1667 79.5,94.5C 76.1667,94.5 72.8333,94.5 69.5,94.5C 69.5,89.5 69.5,84.5 69.5,79.5 Z"/></g>
<g><path style="opacity:1" fill="#fefffe" d="M 84.5,84.5 C 89.5,84.5 94.5,84.5 99.5,84.5C 99.5,89.5 99.5,94.5 99.5,99.5C 94.5,99.5 89.5,99.5 84.5,99.5C 84.5,94.5 84.5,89.5 84.5,84.5 Z"/></g>
<g><path style="opacity:1" fill="#fefffe" d="M 124.5,94.5 C 124.5,96.1667 124.5,97.8333 124.5,99.5C 122.833,99.5 121.167,99.5 119.5,99.5C 119.5,101.167 119.5,102.833 119.5,104.5C 116.167,104.5 112.833,104.5 109.5,104.5C 109.5,102.833 109.5,101.167 109.5,99.5C 107.833,99.5 106.167,99.5 104.5,99.5C 104.5,94.5 104.5,89.5 104.5,84.5C 106.167,84.5 107.833,84.5 109.5,84.5C 109.5,87.8333 109.5,91.1667 109.5,94.5C 114.5,94.5 119.5,94.5 124.5,94.5 Z"/></g>
<g><path style="opacity:1" fill="#fefffe" d="M 114.5,84.5 C 116.167,84.5 117.833,84.5 119.5,84.5C 119.5,86.1667 119.5,87.8333 119.5,89.5C 117.833,89.5 116.167,89.5 114.5,89.5C 114.5,87.8333 114.5,86.1667 114.5,84.5 Z"/></g>
<g><path style="opacity:1" fill="#000000" d="M -0.5,89.5 C 11.1667,89.5 22.8333,89.5 34.5,89.5C 34.5,101.167 34.5,112.833 34.5,124.5C 22.8333,124.5 11.1667,124.5 -0.5,124.5C -0.5,112.833 -0.5,101.167 -0.5,89.5 Z"/></g>
<g><path style="opacity:1" fill="#000000" d="M 89.5,89.5 C 91.1667,89.5 92.8333,89.5 94.5,89.5C 94.5,91.1667 94.5,92.8333 94.5,94.5C 92.8333,94.5 91.1667,94.5 89.5,94.5C 89.5,92.8333 89.5,91.1667 89.5,89.5 Z"/></g>
<g><path style="opacity:1" fill="#fefffe" d="M 4.5,94.5 C 12.8333,94.5 21.1667,94.5 29.5,94.5C 29.5,102.833 29.5,111.167 29.5,119.5C 21.1667,119.5 12.8333,119.5 4.5,119.5C 4.5,111.167 4.5,102.833 4.5,94.5 Z"/></g>
<g><path style="opacity:1" fill="#fefffe" d="M 59.5,94.5 C 62.8333,94.5 66.1667,94.5 69.5,94.5C 69.5,97.8333 69.5,101.167 69.5,104.5C 71.1667,104.5 72.8333,104.5 74.5,104.5C 74.5,102.833 74.5,101.167 74.5,99.5C 76.1667,99.5 77.8333,99.5 79.5,99.5C 79.5,101.167 79.5,102.833 79.5,104.5C 81.1667,104.5 82.8333,104.5 84.5,104.5C 84.5,106.167 84.5,107.833 84.5,109.5C 82.8333,109.5 81.1667,109.5 79.5,109.5C 79.5,111.167 79.5,112.833 79.5,114.5C 81.1667,114.5 82.8333,114.5 84.5,114.5C 84.5,116.167 84.5,117.833 84.5,119.5C 86.1667,119.5 87.8333,119.5 89.5,119.5C 89.5,121.167 89.5,122.833 89.5,124.5C 84.5,124.5 79.5,124.5 74.5,124.5C 74.5,121.167 74.5,117.833 74.5,114.5C 72.8333,114.5 71.1667,114.5 69.5,114.5C 69.5,112.833 69.5,111.167 69.5,109.5C 67.8333,109.5 66.1667,109.5 64.5,109.5C 64.5,114.5 64.5,119.5 64.5,124.5C 62.8333,124.5 61.1667,124.5 59.5,124.5C 59.5,117.833 59.5,111.167 59.5,104.5C 61.1667,104.5 62.8333,104.5 64.5,104.5C 64.5,102.833 64.5,101.167 64.5,99.5C 62.8333,99.5 61.1667,99.5 59.5,99.5C 59.5,97.8333 59.5,96.1667 59.5,94.5 Z"/></g>
<g><path style="opacity:1" fill="#000000" d="M 9.5,99.5 C 14.5,99.5 19.5,99.5 24.5,99.5C 24.5,104.5 24.5,109.5 24.5,114.5C 19.5,114.5 14.5,114.5 9.5,114.5C 9.5,109.5 9.5,104.5 9.5,99.5 Z"/></g>
<g><path style="opacity:1" fill="#000000" d="M 59.5,99.5 C 61.1667,99.5 62.8333,99.5 64.5,99.5C 64.5,101.167 64.5,102.833 64.5,104.5C 62.8333,104.5 61.1667,104.5 59.5,104.5C 59.5,102.833 59.5,101.167 59.5,99.5 Z"/></g>
<g><path style="opacity:1" fill="#000000" d="M 59.5,104.5 C 59.5,111.167 59.5,117.833 59.5,124.5C 57.8333,124.5 56.1667,124.5 54.5,124.5C 54.5,121.167 54.5,117.833 54.5,114.5C 52.8333,114.5 51.1667,114.5 49.5,114.5C 49.5,117.833 49.5,121.167 49.5,124.5C 46.1667,124.5 42.8333,124.5 39.5,124.5C 39.5,117.833 39.5,111.167 39.5,104.5C 46.1667,104.5 52.8333,104.5 59.5,104.5 Z"/></g>
<g><path style="opacity:1" fill="#fefffe" d="M 94.5,104.5 C 96.1667,104.5 97.8333,104.5 99.5,104.5C 99.5,109.5 99.5,114.5 99.5,119.5C 97.8333,119.5 96.1667,119.5 94.5,119.5C 94.5,114.5 94.5,109.5 94.5,104.5 Z"/></g>
<g><path style="opacity:1" fill="#fefffe" d="M 49.5,114.5 C 47.8333,114.5 46.1667,114.5 44.5,114.5C 44.5,112.833 44.5,111.167 44.5,109.5C 46.1667,109.5 47.8333,109.5 49.5,109.5C 49.5,111.167 49.5,112.833 49.5,114.5 Z"/></g>
<g><path style="opacity:1" fill="#000000" d="M 74.5,124.5 C 71.1667,124.5 67.8333,124.5 64.5,124.5C 64.5,119.5 64.5,114.5 64.5,109.5C 66.1667,109.5 67.8333,109.5 69.5,109.5C 69.5,111.167 69.5,112.833 69.5,114.5C 71.1667,114.5 72.8333,114.5 74.5,114.5C 74.5,117.833 74.5,121.167 74.5,124.5 Z"/></g>
<g><path style="opacity:1" fill="#fefffe" d="M 104.5,109.5 C 106.167,109.5 107.833,109.5 109.5,109.5C 109.5,112.833 109.5,116.167 109.5,119.5C 107.833,119.5 106.167,119.5 104.5,119.5C 104.5,116.167 104.5,112.833 104.5,109.5 Z"/></g>
<g><path style="opacity:1" fill="#fefffe" d="M 124.5,109.5 C 124.5,112.833 124.5,116.167 124.5,119.5C 121.167,119.5 117.833,119.5 114.5,119.5C 114.5,117.833 114.5,116.167 114.5,114.5C 116.167,114.5 117.833,114.5 119.5,114.5C 119.5,112.833 119.5,111.167 119.5,109.5C 121.167,109.5 122.833,109.5 124.5,109.5 Z"/></g>
<g><path style="opacity:1" fill="#fefffe" d="M 49.5,114.5 C 51.1667,114.5 52.8333,114.5 54.5,114.5C 54.5,117.833 54.5,121.167 54.5,124.5C 52.8333,124.5 51.1667,124.5 49.5,124.5C 49.5,121.167 49.5,117.833 49.5,114.5 Z"/></g>
</svg>
